HIERARCHY
ROOT Head
{
	OFFSET 0 0 0
	CHANNELS 6 Xposition Yposition Zposition Zrotation Xrotation Yrotation
	JOINT Brows_Inner_Up
	{
		OFFSET -11.000 0 0
		CHANNELS 3 Zrotation Xrotation Yrotation
		End Site
		{
			OFFSET 0 0 10
		}
	}
	JOINT Brows_Inner_Down
	{
		OFFSET -9.000 0 0
		CHANNELS 3 Zrotation Xrotation Yrotation
		End Site
		{
			OFFSET 0 0 10
		}
	}
	JOINT Brows_Outer_Up
	{
		OFFSET -7.000 0 0
		CHANNELS 3 Zrotation Xrotation Yrotation
		End Site
		{
			OFFSET 0 0 10
		}
	}
	JOINT Brows_Outer_Down
	{
		OFFSET -5.000 0 0
		CHANNELS 3 Zrotation Xrotation Yrotation
		End Site
		{
			OFFSET 0 0 10
		}
	}
	JOINT Lip_Stretch
	{
		OFFSET -3.000 0 0
		CHANNELS 3 Zrotation Xrotation Yrotation
		End Site
		{
			OFFSET 0 0 10
		}
	}
	JOINT Lip_Kiss
	{
		OFFSET -1.000 0 0
		CHANNELS 3 Zrotation Xrotation Yrotation
		End Site
		{
			OFFSET 0 0 10
		}
	}
	JOINT Lip_Corners_Up
	{
		OFFSET 1.000 0 0
		CHANNELS 3 Zrotation Xrotation Yrotation
		End Site
		{
			OFFSET 0 0 10
		}
	}
	JOINT Lip_Corners_Down
	{
		OFFSET 3.000 0 0
		CHANNELS 3 Zrotation Xrotation Yrotation
		End Site
		{
			OFFSET 0 0 10
		}
	}
	JOINT Upper_Lip_Up
	{
		OFFSET 5.000 0 0
		CHANNELS 3 Zrotation Xrotation Yrotation
		End Site
		{
			OFFSET 0 0 10
		}
	}
	JOINT Upper_Lip_Down
	{
		OFFSET 7.000 0 0
		CHANNELS 3 Zrotation Xrotation Yrotation
		End Site
		{
			OFFSET 0 0 10
		}
	}
	JOINT Jaw_Open
	{
		OFFSET 9.000 0 0
		CHANNELS 3 Zrotation Xrotation Yrotation
		End Site
		{
			OFFSET 0 0 10
		}
	}
}
MOTION
Frames:	28
Frame Time:	0.0333333
2.851552 -1.869768 -98.334824 3.529856 3.756008 -0.142890 0 -0.000000 0 0 1.042258 0 0 -0.000000 0 0 3.180511 0 0 0.000000 0 0 6.548740 0 0 0.663027 0 0 -0.000000 0 0 0.000000 0 0 0.779974 0 0 9.250943 0
2.851552 -1.869768 -98.334824 3.529856 3.756008 -0.142890 0 -0.000000 0 0 1.042258 0 0 -0.000000 0 0 3.180511 0 0 0.000000 0 0 6.548740 0 0 0.663027 0 0 -0.000000 0 0 0.000000 0 0 0.779974 0 0 9.250943 0
2.851552 -1.869768 -98.334824 3.529856 3.756008 -0.142890 0 -0.000000 0 0 1.042258 0 0 -0.000000 0 0 3.180511 0 0 0.000000 0 0 6.548740 0 0 0.663027 0 0 -0.000000 0 0 0.000000 0 0 0.779974 0 0 9.250943 0
2.851552 -1.869768 -98.334824 3.529856 3.756008 -0.142890 0 -0.000000 0 0 1.042258 0 0 -0.000000 0 0 3.180511 0 0 0.000000 0 0 6.548740 0 0 0.663027 0 0 -0.000000 0 0 0.000000 0 0 0.779974 0 0 9.250943 0
2.851552 -1.869768 -98.334824 3.529856 3.756008 -0.142890 0 -0.000000 0 0 1.042258 0 0 -0.000000 0 0 3.180511 0 0 0.000000 0 0 6.548740 0 0 0.663027 0 0 -0.000000 0 0 0.000000 0 0 0.779974 0 0 9.250943 0
2.851552 -1.869768 -98.334824 3.529856 3.756008 -0.142890 0 -0.000000 0 0 1.042258 0 0 -0.000000 0 0 3.180511 0 0 0.000000 0 0 6.548740 0 0 0.663027 0 0 -0.000000 0 0 0.000000 0 0 0.779974 0 0 9.250943 0
2.851552 -1.869768 -98.334824 3.529856 3.756008 -0.142890 0 -0.000000 0 0 1.042258 0 0 -0.000000 0 0 3.180511 0 0 0.000000 0 0 6.548740 0 0 0.663027 0 0 -0.000000 0 0 0.000000 0 0 0.779974 0 0 9.250943 0
2.851552 -1.869768 -98.334824 3.529856 3.756008 -0.142890 0 -0.000000 0 0 1.042258 0 0 -0.000000 0 0 3.180511 0 0 0.000000 0 0 6.548740 0 0 0.663027 0 0 -0.000000 0 0 0.000000 0 0 0.779974 0 0 9.250943 0
2.851552 -1.869768 -98.334824 3.529856 3.756008 -0.142890 0 -0.000000 0 0 1.042258 0 0 -0.000000 0 0 3.180511 0 0 0.000000 0 0 6.548740 0 0 0.663027 0 0 -0.000000 0 0 0.000000 0 0 0.779974 0 0 9.250943 0
2.851552 -1.869768 -98.334824 3.529856 3.756008 -0.142890 0 -0.000000 0 0 1.042258 0 0 -0.000000 0 0 3.180511 0 0 0.000000 0 0 6.548740 0 0 0.663027 0 0 -0.000000 0 0 0.000000 0 0 0.779974 0 0 9.250943 0
3.016500 -1.828171 -98.467018 3.950969 3.797712 -0.724005 0 0.000000 0 0 2.294057 0 0 2.115058 0 0 -0.318052 0 0 0.000000 0 0 9.577255 0 0 -0.066303 0 0 15.018174 0 0 0.000000 0 0 1.856116 0 0 11.628479 0
3.016500 -1.828171 -98.467018 3.950969 3.797712 -0.724005 0 0.000000 0 0 2.294057 0 0 2.115058 0 0 -0.318052 0 0 0.000000 0 0 9.577255 0 0 -0.066303 0 0 15.018174 0 0 0.000000 0 0 1.856116 0 0 11.628479 0
3.201089 -1.880898 -98.557892 4.422958 3.579340 -1.625754 0 2.214550 0 0 0.114839 0 0 6.350946 0 0 -0.930300 0 0 0.000000 0 0 4.889701 0 0 -0.193935 0 0 21.211222 0 0 2.763284 0 0 0.110327 0 0 17.614946 0
3.263780 -1.875911 -98.589516 4.599380 3.747562 -1.882301 0 3.314164 0 0 -0.361191 0 0 7.559939 0 0 -0.772864 0 0 27.903008 0 0 -1.174238 0 0 -0.161116 0 0 30.677128 0 0 4.480936 0 0 -0.276569 0 0 15.763437 0
3.298872 -1.880267 -98.577560 4.650000 3.845683 -1.961860 0 5.003078 0 0 -0.348327 0 0 3.826285 0 0 -0.507192 0 0 30.118700 0 0 -2.046979 0 0 -0.105732 0 0 33.317951 0 0 4.124648 0 0 -0.271253 0 0 17.437992 0
3.091030 -1.856285 -98.580971 4.272368 4.042599 -0.596450 0 0.503485 0 0 0.881606 0 0 8.124256 0 0 -0.299968 0 0 33.303932 0 0 -1.604498 0 0 -0.062533 0 0 41.453392 0 0 8.287504 0 0 -0.188123 0 0 23.374880 0
2.992969 -1.846995 -98.567917 4.074975 4.093564 -0.029223 0 -0.605944 0 0 1.185282 0 0 8.657797 0 0 -0.089795 0 0 30.492895 0 0 -0.601670 0 0 -0.018719 0 0 39.855377 0 0 8.492236 0 0 -0.064849 0 0 23.516623 0
2.990856 -1.847579 -98.561951 4.063272 4.078406 -0.046840 0 -0.431952 0 0 1.137857 0 0 8.323364 0 0 -0.046944 0 0 29.219824 0 0 -0.333023 0 0 -0.009786 0 0 38.388489 0 0 8.068548 0 0 -0.035202 0 0 22.864346 0
2.994831 -1.848622 -98.557648 4.064936 4.062517 -0.095202 0 -0.266053 0 0 1.092591 0 0 8.063954 0 0 -0.024066 0 0 28.412443 0 0 -0.177882 0 0 -0.005017 0 0 37.397160 0 0 7.757434 0 0 -0.018550 0 0 22.391827 0
2.999637 -1.849565 -98.554756 4.069985 4.049932 -0.141517 0 -0.151978 0 0 1.061454 0 0 7.898209 0 0 -0.012153 0 0 27.943600 0 0 -0.092657 0 0 -0.002534 0 0 36.802006 0 0 7.563229 0 0 -0.009566 0 0 22.098640 0
3.035151 -1.762721 -98.617241 3.812566 4.627132 -0.288485 0 8.378889 0 0 -0.079361 0 0 12.239265 0 0 -0.006065 0 0 55.092968 0 0 -0.047370 0 0 -0.001264 0 0 30.227816 0 0 14.764783 0 0 -0.004853 0 0 22.022623 0
3.047322 -1.737377 -98.635078 3.738945 4.794151 -0.345995 0 9.898767 0 0 -0.286370 0 0 12.962450 0 0 -0.002997 0 0 59.751648 0 0 -0.023870 0 0 -0.000625 0 0 28.955048 0 0 15.983338 0 0 -0.002431 0 0 21.946758 0
3.010854 -1.647706 -98.680557 4.070053 5.120788 0.049429 0 11.189257 0 0 -0.241662 0 0 7.309821 0 0 -0.001469 0 0 60.191917 0 0 -0.011891 0 0 -0.000306 0 0 28.606325 0 0 25.574121 0 0 -0.001205 0 0 23.578144 0
3.016244 -1.663303 -98.683807 4.034820 4.949558 0.056648 0 10.167331 0 0 -0.159506 0 0 8.266785 0 0 -0.000715 0 0 59.019672 0 0 -0.005868 0 0 -0.000149 0 0 32.074886 0 0 30.987030 0 0 -0.000592 0 0 21.694044 0
2.874365 -1.955362 -98.568031 3.963908 2.767649 0.673835 0 5.977918 0 0 -0.052857 0 0 1.605055 0 0 -0.000167 0 0 87.226364 0 0 -0.001398 0 0 -0.000035 0 0 39.955299 0 0 41.469360 0 0 -0.000140 0 0 34.113163 0
2.880887 -1.963805 -98.546043 3.694427 2.612668 0.632693 0 3.852075 0 0 -0.028411 0 0 -1.042853 0 0 -0.000080 0 0 91.470650 0 0 -0.000676 0 0 -0.000017 0 0 45.738590 0 0 43.102871 0 0 -0.000068 0 0 31.758308 0
2.908140 -1.889481 -98.548111 3.444610 3.021293 0.441655 0 3.473883 0 0 -0.014866 0 0 1.018726 0 0 -0.000038 0 0 88.005806 0 0 -0.000325 0 0 -0.000008 0 0 44.266148 0 0 42.094326 0 0 -0.000032 0 0 27.411991 0
2.926703 -1.847788 -98.556183 3.397180 3.313846 0.326248 0 3.872771 0 0 -0.003853 0 0 2.365045 0 0 -0.000009 0 0 83.799957 0 0 -0.000074 0 0 -0.000002 0 0 42.622120 0 0 39.891327 0 0 -0.000007 0 0 26.224869 0
